<svg class="marks" width="1809" height="408" viewBox="0 0 1809 408" version="1.1" xmlns="http://www.w3.org/2000/svg" xmlns:xlink="http://www.w3.org/1999/xlink"><rect width="1809" height="408" style="fill: white;"></rect><g transform="translate(44,5)"><g class="mark-group role-frame root"><g transform="translate(0,0)"><path class="background" d="M0.5,0.5h1760v200h-1760Z" style="fill: none; stroke: #ddd;"></path><g><g class="mark-group role-axis"><g transform="translate(0.5,0.5)"><path class="background" d="M0,0h0v0h0Z" style="pointer-events: none; fill: none;"></path><g><g class="mark-rule role-axis-grid" style="pointer-events: none;"><line transform="translate(0,200)" x2="1760" y2="0" style="fill: none; stroke: #ddd; stroke-width: 1; opacity: 1;"></line><line transform="translate(0,158)" x2="1760" y2="0" style="fill: none; stroke: #ddd; stroke-width: 1; opacity: 1;"></line><line transform="translate(0,117)" x2="1760" y2="0" style="fill: none; stroke: #ddd; stroke-width: 1; opacity: 1;"></line><line transform="translate(0,75)" x2="1760" y2="0" style="fill: none; stroke: #ddd; stroke-width: 1; opacity: 1;"></line><line transform="translate(0,33)" x2="1760" y2="0" style="fill: none; stroke: #ddd; stroke-width: 1; opacity: 1;"></line></g></g><path class="foreground" d="" style="pointer-events: none; display: none; fill: none;"></path></g></g><g class="mark-group role-axis"><g transform="translate(0.5,200.5)"><path class="background" d="M0,0h0v0h0Z" style="pointer-events: none; fill: none;"></path><g><g class="mark-rule role-axis-tick" style="pointer-events: none;"><line transform="translate(10,0)" x2="0" y2="5" style="fill: none; stroke: #888; stroke-width: 1; opacity: 1;"></line><line transform="translate(30,0)" x2="0" y2="5" style="fill: none; stroke: #888; stroke-width: 1; opacity: 1;"></line><line transform="translate(50,0)" x2="0" y2="5" style="fill: none; stroke: #888; stroke-width: 1; opacity: 1;"></line><line transform="translate(70,0)" x2="0" y2="5" style="fill: none; stroke: #888; stroke-width: 1; opacity: 1;"></line><line transform="translate(90,0)" x2="0" y2="5" style="fill: none; stroke: #888; stroke-width: 1; opacity: 1;"></line><line transform="translate(110,0)" x2="0" y2="5" style="fill: none; stroke: #888; stroke-width: 1; opacity: 1;"></line><line transform="translate(130,0)" x2="0" y2="5" style="fill: none; stroke: #888; stroke-width: 1; opacity: 1;"></line><line transform="translate(150,0)" x2="0" y2="5" style="fill: none; stroke: #888; stroke-width: 1; opacity: 1;"></line><line transform="translate(170,0)" x2="0" y2="5" style="fill: none; stroke: #888; stroke-width: 1; opacity: 1;"></line><line transform="translate(190,0)" x2="0" y2="5" style="fill: none; stroke: #888; stroke-width: 1; opacity: 1;"></line><line transform="translate(210,0)" x2="0" y2="5" style="fill: none; stroke: #888; stroke-width: 1; opacity: 1;"></line><line transform="translate(230,0)" x2="0" y2="5" style="fill: none; stroke: #888; stroke-width: 1; opacity: 1;"></line><line transform="translate(250,0)" x2="0" y2="5" style="fill: none; stroke: #888; stroke-width: 1; opacity: 1;"></line><line transform="translate(270,0)" x2="0" y2="5" style="fill: none; stroke: #888; stroke-width: 1; opacity: 1;"></line><line transform="translate(290,0)" x2="0" y2="5" style="fill: none; stroke: #888; stroke-width: 1; opacity: 1;"></line><line transform="translate(310,0)" x2="0" y2="5" style="fill: none; stroke: #888; stroke-width: 1; opacity: 1;"></line><line transform="translate(330,0)" x2="0" y2="5" style="fill: none; stroke: #888; stroke-width: 1; opacity: 1;"></line><line transform="translate(350,0)" x2="0" y2="5" style="fill: none; stroke: #888; stroke-width: 1; opacity: 1;"></line><line transform="translate(370,0)" x2="0" y2="5" style="fill: none; stroke: #888; stroke-width: 1; opacity: 1;"></line><line transform="translate(390,0)" x2="0" y2="5" style="fill: none; stroke: #888; stroke-width: 1; opacity: 1;"></line><line transform="translate(410,0)" x2="0" y2="5" style="fill: none; stroke: #888; stroke-width: 1; opacity: 1;"></line><line transform="translate(430,0)" x2="0" y2="5" style="fill: none; stroke: #888; stroke-width: 1; opacity: 1;"></line><line transform="translate(450,0)" x2="0" y2="5" style="fill: none; stroke: #888; stroke-width: 1; opacity: 1;"></line><line transform="translate(470,0)" x2="0" y2="5" style="fill: none; stroke: #888; stroke-width: 1; opacity: 1;"></line><line transform="translate(490,0)" x2="0" y2="5" style="fill: none; stroke: #888; stroke-width: 1; opacity: 1;"></line><line transform="translate(510,0)" x2="0" y2="5" style="fill: none; stroke: #888; stroke-width: 1; opacity: 1;"></line><line transform="translate(530,0)" x2="0" y2="5" style="fill: none; stroke: #888; stroke-width: 1; opacity: 1;"></line><line transform="translate(550,0)" x2="0" y2="5" style="fill: none; stroke: #888; stroke-width: 1; opacity: 1;"></line><line transform="translate(570,0)" x2="0" y2="5" style="fill: none; stroke: #888; stroke-width: 1; opacity: 1;"></line><line transform="translate(590,0)" x2="0" y2="5" style="fill: none; stroke: #888; stroke-width: 1; opacity: 1;"></line><line transform="translate(610,0)" x2="0" y2="5" style="fill: none; stroke: #888; stroke-width: 1; opacity: 1;"></line><line transform="translate(630,0)" x2="0" y2="5" style="fill: none; stroke: #888; stroke-width: 1; opacity: 1;"></line><line transform="translate(650,0)" x2="0" y2="5" style="fill: none; stroke: #888; stroke-width: 1; opacity: 1;"></line><line transform="translate(670,0)" x2="0" y2="5" style="fill: none; stroke: #888; stroke-width: 1; opacity: 1;"></line><line transform="translate(690,0)" x2="0" y2="5" style="fill: none; stroke: #888; stroke-width: 1; opacity: 1;"></line><line transform="translate(710,0)" x2="0" y2="5" style="fill: none; stroke: #888; stroke-width: 1; opacity: 1;"></line><line transform="translate(730,0)" x2="0" y2="5" style="fill: none; stroke: #888; stroke-width: 1; opacity: 1;"></line><line transform="translate(750,0)" x2="0" y2="5" style="fill: none; stroke: #888; stroke-width: 1; opacity: 1;"></line><line transform="translate(770,0)" x2="0" y2="5" style="fill: none; stroke: #888; stroke-width: 1; opacity: 1;"></line><line transform="translate(790,0)" x2="0" y2="5" style="fill: none; stroke: #888; stroke-width: 1; opacity: 1;"></line><line transform="translate(810,0)" x2="0" y2="5" style="fill: none; stroke: #888; stroke-width: 1; opacity: 1;"></line><line transform="translate(830,0)" x2="0" y2="5" style="fill: none; stroke: #888; stroke-width: 1; opacity: 1;"></line><line transform="translate(850,0)" x2="0" y2="5" style="fill: none; stroke: #888; stroke-width: 1; opacity: 1;"></line><line transform="translate(870,0)" x2="0" y2="5" style="fill: none; stroke: #888; stroke-width: 1; opacity: 1;"></line><line transform="translate(890,0)" x2="0" y2="5" style="fill: none; stroke: #888; stroke-width: 1; opacity: 1;"></line><line transform="translate(910,0)" x2="0" y2="5" style="fill: none; stroke: #888; stroke-width: 1; opacity: 1;"></line><line transform="translate(930,0)" x2="0" y2="5" style="fill: none; stroke: #888; stroke-width: 1; opacity: 1;"></line><line transform="translate(950,0)" x2="0" y2="5" style="fill: none; stroke: #888; stroke-width: 1; opacity: 1;"></line><line transform="translate(970,0)" x2="0" y2="5" style="fill: none; stroke: #888; stroke-width: 1; opacity: 1;"></line><line transform="translate(990,0)" x2="0" y2="5" style="fill: none; stroke: #888; stroke-width: 1; opacity: 1;"></line><line transform="translate(1010,0)" x2="0" y2="5" style="fill: none; stroke: #888; stroke-width: 1; opacity: 1;"></line><line transform="translate(1030,0)" x2="0" y2="5" style="fill: none; stroke: #888; stroke-width: 1; opacity: 1;"></line><line transform="translate(1050,0)" x2="0" y2="5" style="fill: none; stroke: #888; stroke-width: 1; opacity: 1;"></line><line transform="translate(1070,0)" x2="0" y2="5" style="fill: none; stroke: #888; stroke-width: 1; opacity: 1;"></line><line transform="translate(1090,0)" x2="0" y2="5" style="fill: none; stroke: #888; stroke-width: 1; opacity: 1;"></line><line transform="translate(1110,0)" x2="0" y2="5" style="fill: none; stroke: #888; stroke-width: 1; opacity: 1;"></line><line transform="translate(1130,0)" x2="0" y2="5" style="fill: none; stroke: #888; stroke-width: 1; opacity: 1;"></line><line transform="translate(1150,0)" x2="0" y2="5" style="fill: none; stroke: #888; stroke-width: 1; opacity: 1;"></line><line transform="translate(1170,0)" x2="0" y2="5" style="fill: none; stroke: #888; stroke-width: 1; opacity: 1;"></line><line transform="translate(1190,0)" x2="0" y2="5" style="fill: none; stroke: #888; stroke-width: 1; opacity: 1;"></line><line transform="translate(1210,0)" x2="0" y2="5" style="fill: none; stroke: #888; stroke-width: 1; opacity: 1;"></line><line transform="translate(1230,0)" x2="0" y2="5" style="fill: none; stroke: #888; stroke-width: 1; opacity: 1;"></line><line transform="translate(1250,0)" x2="0" y2="5" style="fill: none; stroke: #888; stroke-width: 1; opacity: 1;"></line><line transform="translate(1270,0)" x2="0" y2="5" style="fill: none; stroke: #888; stroke-width: 1; opacity: 1;"></line><line transform="translate(1290,0)" x2="0" y2="5" style="fill: none; stroke: #888; stroke-width: 1; opacity: 1;"></line><line transform="translate(1310,0)" x2="0" y2="5" style="fill: none; stroke: #888; stroke-width: 1; opacity: 1;"></line><line transform="translate(1330,0)" x2="0" y2="5" style="fill: none; stroke: #888; stroke-width: 1; opacity: 1;"></line><line transform="translate(1350,0)" x2="0" y2="5" style="fill: none; stroke: #888; stroke-width: 1; opacity: 1;"></line><line transform="translate(1370,0)" x2="0" y2="5" style="fill: none; stroke: #888; stroke-width: 1; opacity: 1;"></line><line transform="translate(1390,0)" x2="0" y2="5" style="fill: none; stroke: #888; stroke-width: 1; opacity: 1;"></line><line transform="translate(1410,0)" x2="0" y2="5" style="fill: none; stroke: #888; stroke-width: 1; opacity: 1;"></line><line transform="translate(1430,0)" x2="0" y2="5" style="fill: none; stroke: #888; stroke-width: 1; opacity: 1;"></line><line transform="translate(1450,0)" x2="0" y2="5" style="fill: none; stroke: #888; stroke-width: 1; opacity: 1;"></line><line transform="translate(1470,0)" x2="0" y2="5" style="fill: none; stroke: #888; stroke-width: 1; opacity: 1;"></line><line transform="translate(1490,0)" x2="0" y2="5" style="fill: none; stroke: #888; stroke-width: 1; opacity: 1;"></line><line transform="translate(1510,0)" x2="0" y2="5" style="fill: none; stroke: #888; stroke-width: 1; opacity: 1;"></line><line transform="translate(1530,0)" x2="0" y2="5" style="fill: none; stroke: #888; stroke-width: 1; opacity: 1;"></line><line transform="translate(1550,0)" x2="0" y2="5" style="fill: none; stroke: #888; stroke-width: 1; opacity: 1;"></line><line transform="translate(1570,0)" x2="0" y2="5" style="fill: none; stroke: #888; stroke-width: 1; opacity: 1;"></line><line transform="translate(1590,0)" x2="0" y2="5" style="fill: none; stroke: #888; stroke-width: 1; opacity: 1;"></line><line transform="translate(1610,0)" x2="0" y2="5" style="fill: none; stroke: #888; stroke-width: 1; opacity: 1;"></line><line transform="translate(1630,0)" x2="0" y2="5" style="fill: none; stroke: #888; stroke-width: 1; opacity: 1;"></line><line transform="translate(1650,0)" x2="0" y2="5" style="fill: none; stroke: #888; stroke-width: 1; opacity: 1;"></line><line transform="translate(1670,0)" x2="0" y2="5" style="fill: none; stroke: #888; stroke-width: 1; opacity: 1;"></line><line transform="translate(1690,0)" x2="0" y2="5" style="fill: none; stroke: #888; stroke-width: 1; opacity: 1;"></line><line transform="translate(1710,0)" x2="0" y2="5" style="fill: none; stroke: #888; stroke-width: 1; opacity: 1;"></line><line transform="translate(1730,0)" x2="0" y2="5" style="fill: none; stroke: #888; stroke-width: 1; opacity: 1;"></line><line transform="translate(1750,0)" x2="0" y2="5" style="fill: none; stroke: #888; stroke-width: 1; opacity: 1;"></line></g><g class="mark-text role-axis-label" style="pointer-events: none;"><text text-anchor="end" transform="translate(9.5,7) rotate(270) translate(0,3)" style="font-family: sans-serif; font-size: 10px; fill: #000; opacity: 1;">United States</text><text text-anchor="end" transform="translate(29.5,7) rotate(270) translate(0,3)" style="font-family: sans-serif; font-size: 10px; fill: #000; opacity: 1;">Russian Fed.</text><text text-anchor="end" transform="translate(49.5,7) rotate(270) translate(0,3)" style="font-family: sans-serif; font-size: 10px; fill: #000; opacity: 1;">Canada</text><text text-anchor="end" transform="translate(69.5,7) rotate(270) translate(0,3)" style="font-family: sans-serif; font-size: 10px; fill: #000; opacity: 1;">Switzerland</text><text text-anchor="end" transform="translate(89.5,7) rotate(270) translate(0,3)" style="font-family: sans-serif; font-size: 10px; fill: #000; opacity: 1;">Germany</text><text text-anchor="end" transform="translate(109.5,7) rotate(270) translate(0,3)" style="font-family: sans-serif; font-size: 10px; fill: #000; opacity: 1;">Austria</text><text text-anchor="end" transform="translate(129.5,7) rotate(270) translate(0,3)" style="font-family: sans-serif; font-size: 10px; fill: #000; opacity: 1;">Norway</text><text text-anchor="end" transform="translate(149.5,7) rotate(270) translate(0,3)" style="font-family: sans-serif; font-size: 10px; fill: #000; opacity: 1;">Italy</text><text text-anchor="end" transform="translate(169.5,7) rotate(270) translate(0,3)" style="font-family: sans-serif; font-size: 10px; fill: #000; opacity: 1;">France</text><text text-anchor="end" transform="translate(189.5,7) rotate(270) translate(0,3)" style="font-family: sans-serif; font-size: 10px; fill: #000; opacity: 1;">Japan</text><text text-anchor="end" transform="translate(209.5,7) rotate(270) translate(0,3)" style="font-family: sans-serif; font-size: 10px; fill: #000; opacity: 1;">Sweden</text><text text-anchor="end" transform="translate(229.5,7) rotate(270) translate(0,3)" style="font-family: sans-serif; font-size: 10px; fill: #000; opacity: 1;">Finland</text><text text-anchor="end" transform="translate(249.5,7) rotate(270) translate(0,3)" style="font-family: sans-serif; font-size: 10px; fill: #000; opacity: 1;">Czech Republic</text><text text-anchor="end" transform="translate(269.5,7) rotate(270) translate(0,3)" style="font-family: sans-serif; font-size: 10px; fill: #000; opacity: 1;">Korea</text><text text-anchor="end" transform="translate(289.5,7) rotate(270) translate(0,3)" style="font-family: sans-serif; font-size: 10px; fill: #000; opacity: 1;">Slovenia</text><text text-anchor="end" transform="translate(309.5,7) rotate(270) translate(0,3)" style="font-family: sans-serif; font-size: 10px; fill: #000; opacity: 1;">China</text><text text-anchor="end" transform="translate(329.5,7) rotate(270) translate(0,3)" style="font-family: sans-serif; font-size: 10px; fill: #000; opacity: 1;">Slovakia</text><text text-anchor="end" transform="translate(349.5,7) rotate(270) translate(0,3)" style="font-family: sans-serif; font-size: 10px; fill: #000; opacity: 1;">Australia</text><text text-anchor="end" transform="translate(369.5,7) rotate(270) translate(0,3)" style="font-family: sans-serif; font-size: 10px; fill: #000; opacity: 1;">Poland</text><text text-anchor="end" transform="translate(389.5,7) rotate(270) translate(0,3)" style="font-family: sans-serif; font-size: 10px; fill: #000; opacity: 1;">Great Britain</text><text text-anchor="end" transform="translate(409.5,7) rotate(270) translate(0,3)" style="font-family: sans-serif; font-size: 10px; fill: #000; opacity: 1;">Latvia</text><text text-anchor="end" transform="translate(429.5,7) rotate(270) translate(0,3)" style="font-family: sans-serif; font-size: 10px; fill: #000; opacity: 1;">Kazakhstan</text><text text-anchor="end" transform="translate(449.5,7) rotate(270) translate(0,3)" style="font-family: sans-serif; font-size: 10px; fill: #000; opacity: 1;">Ukraine</text><text text-anchor="end" transform="translate(469.5,7) rotate(270) translate(0,3)" style="font-family: sans-serif; font-size: 10px; fill: #000; opacity: 1;">Netherlands</text><text text-anchor="end" transform="translate(489.5,7) rotate(270) translate(0,3)" style="font-family: sans-serif; font-size: 10px; fill: #000; opacity: 1;">Belarus</text><text text-anchor="end" transform="translate(509.5,7) rotate(270) translate(0,3)" style="font-family: sans-serif; font-size: 10px; fill: #000; opacity: 1;">Estonia</text><text text-anchor="end" transform="translate(529.5,7) rotate(270) translate(0,3)" style="font-family: sans-serif; font-size: 10px; fill: #000; opacity: 1;">Romania</text><text text-anchor="end" transform="translate(549.5,7) rotate(270) translate(0,3)" style="font-family: sans-serif; font-size: 10px; fill: #000; opacity: 1;">Spain</text><text text-anchor="end" transform="translate(569.5,7) rotate(270) translate(0,3)" style="font-family: sans-serif; font-size: 10px; fill: #000; opacity: 1;">Bulgaria</text><text text-anchor="end" transform="translate(589.5,7) rotate(270) translate(0,3)" style="font-family: sans-serif; font-size: 10px; fill: #000; opacity: 1;">Hungary</text><text text-anchor="end" transform="translate(609.5,7) rotate(270) translate(0,3)" style="font-family: sans-serif; font-size: 10px; fill: #000; opacity: 1;">New Zealand</text><text text-anchor="end" transform="translate(629.5,7) rotate(270) translate(0,3)" style="font-family: sans-serif; font-size: 10px; fill: #000; opacity: 1;">Denmark</text><text text-anchor="end" transform="translate(649.5,7) rotate(270) translate(0,3)" style="font-family: sans-serif; font-size: 10px; fill: #000; opacity: 1;">Brazil</text><text text-anchor="end" transform="translate(669.5,7) rotate(270) translate(0,3)" style="font-family: sans-serif; font-size: 10px; fill: #000; opacity: 1;">Croatia</text><text text-anchor="end" transform="translate(689.5,7) rotate(270) translate(0,3)" style="font-family: sans-serif; font-size: 10px; fill: #000; opacity: 1;">Lithuania</text><text text-anchor="end" transform="translate(709.5,7) rotate(270) translate(0,3)" style="font-family: sans-serif; font-size: 10px; fill: #000; opacity: 1;">Serbia</text><text text-anchor="end" transform="translate(729.5,7) rotate(270) translate(0,3)" style="font-family: sans-serif; font-size: 10px; fill: #000; opacity: 1;">Greece</text><text text-anchor="end" transform="translate(749.5,7) rotate(270) translate(0,3)" style="font-family: sans-serif; font-size: 10px; fill: #000; opacity: 1;">Belgium</text><text text-anchor="end" transform="translate(769.5,7) rotate(270) translate(0,3)" style="font-family: sans-serif; font-size: 10px; fill: #000; opacity: 1;">Argentina</text><text text-anchor="end" transform="translate(789.5,7) rotate(270) translate(0,3)" style="font-family: sans-serif; font-size: 10px; fill: #000; opacity: 1;">Turkey</text><text text-anchor="end" transform="translate(809.5,7) rotate(270) translate(0,3)" style="font-family: sans-serif; font-size: 10px; fill: #000; opacity: 1;">Chile</text><text text-anchor="end" transform="translate(829.5,7) rotate(270) translate(0,3)" style="font-family: sans-serif; font-size: 10px; fill: #000; opacity: 1;">Andorra</text><text text-anchor="end" transform="translate(849.5,7) rotate(270) translate(0,3)" style="font-family: sans-serif; font-size: 10px; fill: #000; opacity: 1;">Monaco</text><text text-anchor="end" transform="translate(869.5,7) rotate(270) translate(0,3)" style="font-family: sans-serif; font-size: 10px; fill: #000; opacity: 1;">Israel</text><text text-anchor="end" transform="translate(889.5,7) rotate(270) translate(0,3)" style="font-family: sans-serif; font-size: 10px; fill: #000; opacity: 1;">Iceland</text><text text-anchor="end" transform="translate(909.5,7) rotate(270) translate(0,3)" style="font-family: sans-serif; font-size: 10px; fill: #000; opacity: 1;">Ireland</text><text text-anchor="end" transform="translate(929.5,7) rotate(270) translate(0,3)" style="font-family: sans-serif; font-size: 10px; fill: #000; opacity: 1;">IR Iran</text><text text-anchor="end" transform="translate(949.5,7) rotate(270) translate(0,3)" style="font-family: sans-serif; font-size: 10px; fill: #000; opacity: 1;">Bosnia and Herzegovina</text><text text-anchor="end" transform="translate(969.5,7) rotate(270) translate(0,3)" style="font-family: sans-serif; font-size: 10px; fill: #000; opacity: 1;">Georgia</text><text text-anchor="end" transform="translate(989.5,7) rotate(270) translate(0,3)" style="font-family: sans-serif; font-size: 10px; fill: #000; opacity: 1;">Rep. of Moldova</text><text text-anchor="end" transform="translate(1009.5,7) rotate(270) translate(0,3)" style="font-family: sans-serif; font-size: 10px; fill: #000; opacity: 1;">Azerbaijan</text><text text-anchor="end" transform="translate(1029.5,7) rotate(270) translate(0,3)" style="font-family: sans-serif; font-size: 10px; fill: #000; opacity: 1;">Armenia</text><text text-anchor="end" transform="translate(1049.5,7) rotate(270) translate(0,3)" style="font-family: sans-serif; font-size: 10px; fill: #000; opacity: 1;">Liechtenstein</text><text text-anchor="end" transform="translate(1069.5,7) rotate(270) translate(0,3)" style="font-family: sans-serif; font-size: 10px; fill: #000; opacity: 1;">The Former Yugoslav Republic of Ma…</text><text text-anchor="end" transform="translate(1089.5,7) rotate(270) translate(0,3)" style="font-family: sans-serif; font-size: 10px; fill: #000; opacity: 1;">Uzbekistan</text><text text-anchor="end" transform="translate(1109.5,7) rotate(270) translate(0,3)" style="font-family: sans-serif; font-size: 10px; fill: #000; opacity: 1;">Chinese Taipei</text><text text-anchor="end" transform="translate(1129.5,7) rotate(270) translate(0,3)" style="font-family: sans-serif; font-size: 10px; fill: #000; opacity: 1;">Independent Olymp. participant</text><text text-anchor="end" transform="translate(1149.5,7) rotate(270) translate(0,3)" style="font-family: sans-serif; font-size: 10px; fill: #000; opacity: 1;">Peru</text><text text-anchor="end" transform="translate(1169.5,7) rotate(270) translate(0,3)" style="font-family: sans-serif; font-size: 10px; fill: #000; opacity: 1;">Jamaica</text><text text-anchor="end" transform="translate(1189.5,7) rotate(270) translate(0,3)" style="font-family: sans-serif; font-size: 10px; fill: #000; opacity: 1;">Morocco</text><text text-anchor="end" transform="translate(1209.5,7) rotate(270) translate(0,3)" style="font-family: sans-serif; font-size: 10px; fill: #000; opacity: 1;">Togo</text><text text-anchor="end" transform="translate(1229.5,7) rotate(270) translate(0,3)" style="font-family: sans-serif; font-size: 10px; fill: #000; opacity: 1;">Cyprus</text><text text-anchor="end" transform="translate(1249.5,7) rotate(270) translate(0,3)" style="font-family: sans-serif; font-size: 10px; fill: #000; opacity: 1;">Lebanon</text><text text-anchor="end" transform="translate(1269.5,7) rotate(270) translate(0,3)" style="font-family: sans-serif; font-size: 10px; fill: #000; opacity: 1;">Dominica</text><text text-anchor="end" transform="translate(1289.5,7) rotate(270) translate(0,3)" style="font-family: sans-serif; font-size: 10px; fill: #000; opacity: 1;">Portugal</text><text text-anchor="end" transform="translate(1309.5,7) rotate(270) translate(0,3)" style="font-family: sans-serif; font-size: 10px; fill: #000; opacity: 1;">Mongolia</text><text text-anchor="end" transform="translate(1329.5,7) rotate(270) translate(0,3)" style="font-family: sans-serif; font-size: 10px; fill: #000; opacity: 1;">Albania</text><text text-anchor="end" transform="translate(1349.5,7) rotate(270) translate(0,3)" style="font-family: sans-serif; font-size: 10px; fill: #000; opacity: 1;">San Marino</text><text text-anchor="end" transform="translate(1369.5,7) rotate(270) translate(0,3)" style="font-family: sans-serif; font-size: 10px; fill: #000; opacity: 1;">Montenegro</text><text text-anchor="end" transform="translate(1389.5,7) rotate(270) translate(0,3)" style="font-family: sans-serif; font-size: 10px; fill: #000; opacity: 1;">Thailand</text><text text-anchor="end" transform="translate(1409.5,7) rotate(270) translate(0,3)" style="font-family: sans-serif; font-size: 10px; fill: #000; opacity: 1;">Tajikistan</text><text text-anchor="end" transform="translate(1429.5,7) rotate(270) translate(0,3)" style="font-family: sans-serif; font-size: 10px; fill: #000; opacity: 1;">Venezuela</text><text text-anchor="end" transform="translate(1449.5,7) rotate(270) translate(0,3)" style="font-family: sans-serif; font-size: 10px; fill: #000; opacity: 1;">Tonga</text><text text-anchor="end" transform="translate(1469.5,7) rotate(270) translate(0,3)" style="font-family: sans-serif; font-size: 10px; fill: #000; opacity: 1;">Nepal</text><text text-anchor="end" transform="translate(1489.5,7) rotate(270) translate(0,3)" style="font-family: sans-serif; font-size: 10px; fill: #000; opacity: 1;">Cayman Islands</text><text text-anchor="end" transform="translate(1509.5,7) rotate(270) translate(0,3)" style="font-family: sans-serif; font-size: 10px; fill: #000; opacity: 1;">Malta</text><text text-anchor="end" transform="translate(1529.5,7) rotate(270) translate(0,3)" style="font-family: sans-serif; font-size: 10px; fill: #000; opacity: 1;">Kyrgyzstan</text><text text-anchor="end" transform="translate(1549.5,7) rotate(270) translate(0,3)" style="font-family: sans-serif; font-size: 10px; fill: #000; opacity: 1;">Mexico</text><text text-anchor="end" transform="translate(1569.5,7) rotate(270) translate(0,3)" style="font-family: sans-serif; font-size: 10px; fill: #000; opacity: 1;">Virgin Isl, US</text><text text-anchor="end" transform="translate(1589.5,7) rotate(270) translate(0,3)" style="font-family: sans-serif; font-size: 10px; fill: #000; opacity: 1;">Paraguay</text><text text-anchor="end" transform="translate(1609.5,7) rotate(270) translate(0,3)" style="font-family: sans-serif; font-size: 10px; fill: #000; opacity: 1;">Luxembourg</text><text text-anchor="end" transform="translate(1629.5,7) rotate(270) translate(0,3)" style="font-family: sans-serif; font-size: 10px; fill: #000; opacity: 1;">Zimbabwe</text><text text-anchor="end" transform="translate(1649.5,7) rotate(270) translate(0,3)" style="font-family: sans-serif; font-size: 10px; fill: #000; opacity: 1;">Philippines</text><text text-anchor="end" transform="translate(1669.5,7) rotate(270) translate(0,3)" style="font-family: sans-serif; font-size: 10px; fill: #000; opacity: 1;">Pakistan</text><text text-anchor="end" transform="translate(1689.5,7) rotate(270) translate(0,3)" style="font-family: sans-serif; font-size: 10px; fill: #000; opacity: 1;">Hong Kong, CHN</text><text text-anchor="end" transform="translate(1709.5,7) rotate(270) translate(0,3)" style="font-family: sans-serif; font-size: 10px; fill: #000; opacity: 1;">Virgin Isl, B</text><text text-anchor="end" transform="translate(1729.5,7) rotate(270) translate(0,3)" style="font-family: sans-serif; font-size: 10px; fill: #000; opacity: 1;">Bermuda</text><text text-anchor="end" transform="translate(1749.5,7) rotate(270) translate(0,3)" style="font-family: sans-serif; font-size: 10px; fill: #000; opacity: 1;">Timor-Leste</text></g><g class="mark-rule role-axis-domain" style="pointer-events: none;"><line transform="translate(0,0)" x2="1760" y2="0" style="fill: none; stroke: #888; stroke-width: 1; opacity: 1;"></line></g><g class="mark-text role-axis-title" style="pointer-events: none;"><text text-anchor="middle" transform="translate(880,195.078125)" style="font-family: sans-serif; font-size: 11px; font-weight: bold; fill: #000; opacity: 1;">country</text></g></g><path class="foreground" d="" style="pointer-events: none; display: none; fill: none;"></path></g></g><g class="mark-group role-axis"><g transform="translate(0.5,0.5)"><path class="background" d="M0,0h0v0h0Z" style="pointer-events: none; fill: none;"></path><g><g class="mark-rule role-axis-tick" style="pointer-events: none;"><line transform="translate(0,200)" x2="-5" y2="0" style="fill: none; stroke: #888; stroke-width: 1; opacity: 1;"></line><line transform="translate(0,158)" x2="-5" y2="0" style="fill: none; stroke: #888; stroke-width: 1; opacity: 1;"></line><line transform="translate(0,117)" x2="-5" y2="0" style="fill: none; stroke: #888; stroke-width: 1; opacity: 1;"></line><line transform="translate(0,75)" x2="-5" y2="0" style="fill: none; stroke: #888; stroke-width: 1; opacity: 1;"></line><line transform="translate(0,33)" x2="-5" y2="0" style="fill: none; stroke: #888; stroke-width: 1; opacity: 1;"></line></g><g class="mark-text role-axis-label" style="pointer-events: none;"><text text-anchor="end" transform="translate(-7,203)" style="font-family: sans-serif; font-size: 10px; fill: #000; opacity: 1;">0</text><text text-anchor="end" transform="translate(-7,161.33333333333331)" style="font-family: sans-serif; font-size: 10px; fill: #000; opacity: 1;">50</text><text text-anchor="end" transform="translate(-7,119.66666666666666)" style="font-family: sans-serif; font-size: 10px; fill: #000; opacity: 1;">100</text><text text-anchor="end" transform="translate(-7,78)" style="font-family: sans-serif; font-size: 10px; fill: #000; opacity: 1;">150</text><text text-anchor="end" transform="translate(-7,36.33333333333333)" style="font-family: sans-serif; font-size: 10px; fill: #000; opacity: 1;">200</text></g><g class="mark-rule role-axis-domain" style="pointer-events: none;"><line transform="translate(0,200)" x2="0" y2="-200" style="fill: none; stroke: #888; stroke-width: 1; opacity: 1;"></line></g><g class="mark-text role-axis-title" style="pointer-events: none;"><text text-anchor="middle" transform="translate(-27.6845703125,100) rotate(-90) translate(0,-2)" style="font-family: sans-serif; font-size: 11px; font-weight: bold; fill: #000; opacity: 1;">Athletes</text></g></g><path class="foreground" d="" style="pointer-events: none; display: none; fill: none;"></path></g></g><g class="mark-rect role-mark marks"><path d="M1,9.166666666666657h18v190.83333333333334h-18Z" style="fill: #4c78a8;"></path><path d="M141,105.83333333333333h18v94.16666666666667h-18Z" style="fill: #4c78a8;"></path><path d="M421,157.5h18v42.5h-18Z" style="fill: #4c78a8;"></path><path d="M601,187.5h18v12.5h-18Z" style="fill: #4c78a8;"></path><path d="M361,150.83333333333334h18v49.16666666666666h-18Z" style="fill: #4c78a8;"></path><path d="M1181,198.33333333333334h18v1.6666666666666572h-18Z" style="fill: #4c78a8;"></path><path d="M321,147.5h18v52.5h-18Z" style="fill: #4c78a8;"></path><path d="M21,11.66666666666667h18v188.33333333333334h-18Z" style="fill: #4c78a8;"></path><path d="M161,105.83333333333333h18v94.16666666666667h-18Z" style="fill: #4c78a8;"></path><path d="M541,183.33333333333331h18v16.666666666666686h-18Z" style="fill: #4c78a8;"></path><path d="M101,91.66666666666667h18v108.33333333333333h-18Z" style="fill: #4c78a8;"></path><path d="M681,192.5h18v7.5h-18Z" style="fill: #4c78a8;"></path><path d="M201,106.66666666666667h18v93.33333333333333h-18Z" style="fill: #4c78a8;"></path><path d="M581,186.66666666666666h18v13.333333333333343h-18Z" style="fill: #4c78a8;"></path><path d="M401,152.5h18v47.5h-18Z" style="fill: #4c78a8;"></path><path d="M221,113.33333333333333h18v86.66666666666667h-18Z" style="fill: #4c78a8;"></path><path d="M181,105.83333333333333h18v94.16666666666667h-18Z" style="fill: #4c78a8;"></path><path d="M381,151.66666666666666h18v48.33333333333334h-18Z" style="fill: #4c78a8;"></path><path d="M341,150h18v50h-18Z" style="fill: #4c78a8;"></path><path d="M61,64.16666666666666h18v135.83333333333334h-18Z" style="fill: #4c78a8;"></path><path d="M501,179.16666666666669h18v20.833333333333314h-18Z" style="fill: #4c78a8;"></path><path d="M121,101.66666666666666h18v98.33333333333334h-18Z" style="fill: #4c78a8;"></path><path d="M261,140.83333333333331h18v59.166666666666686h-18Z" style="fill: #4c78a8;"></path><path d="M701,193.33333333333334h18v6.666666666666657h-18Z" style="fill: #4c78a8;"></path><path d="M481,178.33333333333331h18v21.666666666666686h-18Z" style="fill: #4c78a8;"></path><path d="M281,145.83333333333334h18v54.16666666666666h-18Z" style="fill: #4c78a8;"></path><path d="M241,126.66666666666666h18v73.33333333333334h-18Z" style="fill: #4c78a8;"></path><path d="M1201,198.33333333333334h18v1.6666666666666572h-18Z" style="fill: #4c78a8;"></path><path d="M41,16.666666666666675h18v183.33333333333331h-18Z" style="fill: #4c78a8;"></path><path d="M961,196.66666666666666h18v3.333333333333343h-18Z" style="fill: #4c78a8;"></path><path d="M81,71.66666666666666h18v128.33333333333334h-18Z" style="fill: #4c78a8;"></path><path d="M981,196.66666666666666h18v3.333333333333343h-18Z" style="fill: #4c78a8;"></path><path d="M841,195.83333333333331h18v4.166666666666686h-18Z" style="fill: #4c78a8;"></path><path d="M561,185h18v15h-18Z" style="fill: #4c78a8;"></path><path d="M1221,198.33333333333334h18v1.6666666666666572h-18Z" style="fill: #4c78a8;"></path><path d="M1241,198.33333333333334h18v1.6666666666666572h-18Z" style="fill: #4c78a8;"></path><path d="M721,194.16666666666666h18v5.833333333333343h-18Z" style="fill: #4c78a8;"></path><path d="M521,180h18v20h-18Z" style="fill: #4c78a8;"></path><path d="M861,195.83333333333331h18v4.166666666666686h-18Z" style="fill: #4c78a8;"></path><path d="M1001,196.66666666666666h18v3.333333333333343h-18Z" style="fill: #4c78a8;"></path><path d="M781,195h18v5h-18Z" style="fill: #4c78a8;"></path><path d="M1401,199.16666666666666h18v0.8333333333333428h-18Z" style="fill: #4c78a8;"></path><path d="M441,164.16666666666666h18v35.83333333333334h-18Z" style="fill: #4c78a8;"></path><path d="M661,190.83333333333334h18v9.166666666666657h-18Z" style="fill: #4c78a8;"></path><path d="M1261,198.33333333333334h18v1.6666666666666572h-18Z" style="fill: #4c78a8;"></path><path d="M461,165.83333333333331h18v34.166666666666686h-18Z" style="fill: #4c78a8;"></path><path d="M1421,199.16666666666666h18v0.8333333333333428h-18Z" style="fill: #4c78a8;"></path><path d="M1061,197.5h18v2.5h-18Z" style="fill: #4c78a8;"></path><path d="M1021,196.66666666666666h18v3.333333333333343h-18Z" style="fill: #4c78a8;"></path><path d="M1081,197.5h18v2.5h-18Z" style="fill: #4c78a8;"></path><path d="M1281,198.33333333333334h18v1.6666666666666572h-18Z" style="fill: #4c78a8;"></path><path d="M741,194.16666666666666h18v5.833333333333343h-18Z" style="fill: #4c78a8;"></path><path d="M301,145.83333333333334h18v54.16666666666666h-18Z" style="fill: #4c78a8;"></path><path d="M1441,199.16666666666666h18v0.8333333333333428h-18Z" style="fill: #4c78a8;"></path><path d="M881,195.83333333333331h18v4.166666666666686h-18Z" style="fill: #4c78a8;"></path><path d="M1301,198.33333333333334h18v1.6666666666666572h-18Z" style="fill: #4c78a8;"></path><path d="M1101,197.5h18v2.5h-18Z" style="fill: #4c78a8;"></path><path d="M621,190h18v10h-18Z" style="fill: #4c78a8;"></path><path d="M901,195.83333333333331h18v4.166666666666686h-18Z" style="fill: #4c78a8;"></path><path d="M761,194.16666666666666h18v5.833333333333343h-18Z" style="fill: #4c78a8;"></path><path d="M1461,199.16666666666666h18v0.8333333333333428h-18Z" style="fill: #4c78a8;"></path><path d="M801,195h18v5h-18Z" style="fill: #4c78a8;"></path><path d="M1481,199.16666666666666h18v0.8333333333333428h-18Z" style="fill: #4c78a8;"></path><path d="M641,190h18v10h-18Z" style="fill: #4c78a8;"></path><path d="M1501,199.16666666666666h18v0.8333333333333428h-18Z" style="fill: #4c78a8;"></path><path d="M1321,198.33333333333334h18v1.6666666666666572h-18Z" style="fill: #4c78a8;"></path><path d="M1521,199.16666666666666h18v0.8333333333333428h-18Z" style="fill: #4c78a8;"></path><path d="M921,195.83333333333331h18v4.166666666666686h-18Z" style="fill: #4c78a8;"></path><path d="M1341,198.33333333333334h18v1.6666666666666572h-18Z" style="fill: #4c78a8;"></path><path d="M1121,197.5h18v2.5h-18Z" style="fill: #4c78a8;"></path><path d="M1541,199.16666666666666h18v0.8333333333333428h-18Z" style="fill: #4c78a8;"></path><path d="M941,195.83333333333331h18v4.166666666666686h-18Z" style="fill: #4c78a8;"></path><path d="M1361,198.33333333333334h18v1.6666666666666572h-18Z" style="fill: #4c78a8;"></path><path d="M1561,199.16666666666666h18v0.8333333333333428h-18Z" style="fill: #4c78a8;"></path><path d="M821,195h18v5h-18Z" style="fill: #4c78a8;"></path><path d="M1581,199.16666666666666h18v0.8333333333333428h-18Z" style="fill: #4c78a8;"></path><path d="M1381,198.33333333333334h18v1.6666666666666572h-18Z" style="fill: #4c78a8;"></path><path d="M1601,199.16666666666666h18v0.8333333333333428h-18Z" style="fill: #4c78a8;"></path><path d="M1621,199.16666666666666h18v0.8333333333333428h-18Z" style="fill: #4c78a8;"></path><path d="M1141,197.5h18v2.5h-18Z" style="fill: #4c78a8;"></path><path d="M1041,196.66666666666666h18v3.333333333333343h-18Z" style="fill: #4c78a8;"></path><path d="M1161,197.5h18v2.5h-18Z" style="fill: #4c78a8;"></path><path d="M1641,199.16666666666666h18v0.8333333333333428h-18Z" style="fill: #4c78a8;"></path><path d="M1661,199.16666666666666h18v0.8333333333333428h-18Z" style="fill: #4c78a8;"></path><path d="M1681,199.16666666666666h18v0.8333333333333428h-18Z" style="fill: #4c78a8;"></path><path d="M1701,199.16666666666666h18v0.8333333333333428h-18Z" style="fill: #4c78a8;"></path><path d="M1721,199.16666666666666h18v0.8333333333333428h-18Z" style="fill: #4c78a8;"></path><path d="M1741,199.16666666666666h18v0.8333333333333428h-18Z" style="fill: #4c78a8;"></path></g></g><path class="foreground" d="" style="display: none; fill: none;"></path></g></g></g></svg>