<svg class="marks" width="1872" height="413" viewBox="0 0 1872 413" version="1.1" xmlns="http://www.w3.org/2000/svg" xmlns:xlink="http://www.w3.org/1999/xlink"><rect width="1872" height="413" style="fill: white;"></rect><g transform="translate(39,10)"><g class="mark-group role-frame root"><g transform="translate(0,0)"><path class="background" d="M0.5,0.5h1760v200h-1760Z" style="fill: none; stroke: #ddd;"></path><g><g class="mark-group role-axis"><g transform="translate(0.5,0.5)"><path class="background" d="M0,0h0v0h0Z" style="pointer-events: none; fill: none;"></path><g><g class="mark-rule role-axis-grid" style="pointer-events: none;"><line transform="translate(0,200)" x2="1760" y2="0" style="fill: none; stroke: #ddd; stroke-width: 1; opacity: 1;"></line><line transform="translate(0,150)" x2="1760" y2="0" style="fill: none; stroke: #ddd; stroke-width: 1; opacity: 1;"></line><line transform="translate(0,100)" x2="1760" y2="0" style="fill: none; stroke: #ddd; stroke-width: 1; opacity: 1;"></line><line transform="translate(0,50)" x2="1760" y2="0" style="fill: none; stroke: #ddd; stroke-width: 1; opacity: 1;"></line><line transform="translate(0,0)" x2="1760" y2="0" style="fill: none; stroke: #ddd; stroke-width: 1; opacity: 1;"></line></g></g><path class="foreground" d="" style="pointer-events: none; display: none; fill: none;"></path></g></g><g class="mark-group role-axis"><g transform="translate(0.5,200.5)"><path class="background" d="M0,0h0v0h0Z" style="pointer-events: none; fill: none;"></path><g><g class="mark-rule role-axis-tick" style="pointer-events: none;"><line transform="translate(10,0)" x2="0" y2="5" style="fill: none; stroke: #888; stroke-width: 1; opacity: 1;"></line><line transform="translate(30,0)" x2="0" y2="5" style="fill: none; stroke: #888; stroke-width: 1; opacity: 1;"></line><line transform="translate(50,0)" x2="0" y2="5" style="fill: none; stroke: #888; stroke-width: 1; opacity: 1;"></line><line transform="translate(70,0)" x2="0" y2="5" style="fill: none; stroke: #888; stroke-width: 1; opacity: 1;"></line><line transform="translate(90,0)" x2="0" y2="5" style="fill: none; stroke: #888; stroke-width: 1; opacity: 1;"></line><line transform="translate(110,0)" x2="0" y2="5" style="fill: none; stroke: #888; stroke-width: 1; opacity: 1;"></line><line transform="translate(130,0)" x2="0" y2="5" style="fill: none; stroke: #888; stroke-width: 1; opacity: 1;"></line><line transform="translate(150,0)" x2="0" y2="5" style="fill: none; stroke: #888; stroke-width: 1; opacity: 1;"></line><line transform="translate(170,0)" x2="0" y2="5" style="fill: none; stroke: #888; stroke-width: 1; opacity: 1;"></line><line transform="translate(190,0)" x2="0" y2="5" style="fill: none; stroke: #888; stroke-width: 1; opacity: 1;"></line><line transform="translate(210,0)" x2="0" y2="5" style="fill: none; stroke: #888; stroke-width: 1; opacity: 1;"></line><line transform="translate(230,0)" x2="0" y2="5" style="fill: none; stroke: #888; stroke-width: 1; opacity: 1;"></line><line transform="translate(250,0)" x2="0" y2="5" style="fill: none; stroke: #888; stroke-width: 1; opacity: 1;"></line><line transform="translate(270,0)" x2="0" y2="5" style="fill: none; stroke: #888; stroke-width: 1; opacity: 1;"></line><line transform="translate(290,0)" x2="0" y2="5" style="fill: none; stroke: #888; stroke-width: 1; opacity: 1;"></line><line transform="translate(310,0)" x2="0" y2="5" style="fill: none; stroke: #888; stroke-width: 1; opacity: 1;"></line><line transform="translate(330,0)" x2="0" y2="5" style="fill: none; stroke: #888; stroke-width: 1; opacity: 1;"></line><line transform="translate(350,0)" x2="0" y2="5" style="fill: none; stroke: #888; stroke-width: 1; opacity: 1;"></line><line transform="translate(370,0)" x2="0" y2="5" style="fill: none; stroke: #888; stroke-width: 1; opacity: 1;"></line><line transform="translate(390,0)" x2="0" y2="5" style="fill: none; stroke: #888; stroke-width: 1; opacity: 1;"></line><line transform="translate(410,0)" x2="0" y2="5" style="fill: none; stroke: #888; stroke-width: 1; opacity: 1;"></line><line transform="translate(430,0)" x2="0" y2="5" style="fill: none; stroke: #888; stroke-width: 1; opacity: 1;"></line><line transform="translate(450,0)" x2="0" y2="5" style="fill: none; stroke: #888; stroke-width: 1; opacity: 1;"></line><line transform="translate(470,0)" x2="0" y2="5" style="fill: none; stroke: #888; stroke-width: 1; opacity: 1;"></line><line transform="translate(490,0)" x2="0" y2="5" style="fill: none; stroke: #888; stroke-width: 1; opacity: 1;"></line><line transform="translate(510,0)" x2="0" y2="5" style="fill: none; stroke: #888; stroke-width: 1; opacity: 1;"></line><line transform="translate(530,0)" x2="0" y2="5" style="fill: none; stroke: #888; stroke-width: 1; opacity: 1;"></line><line transform="translate(550,0)" x2="0" y2="5" style="fill: none; stroke: #888; stroke-width: 1; opacity: 1;"></line><line transform="translate(570,0)" x2="0" y2="5" style="fill: none; stroke: #888; stroke-width: 1; opacity: 1;"></line><line transform="translate(590,0)" x2="0" y2="5" style="fill: none; stroke: #888; stroke-width: 1; opacity: 1;"></line><line transform="translate(610,0)" x2="0" y2="5" style="fill: none; stroke: #888; stroke-width: 1; opacity: 1;"></line><line transform="translate(630,0)" x2="0" y2="5" style="fill: none; stroke: #888; stroke-width: 1; opacity: 1;"></line><line transform="translate(650,0)" x2="0" y2="5" style="fill: none; stroke: #888; stroke-width: 1; opacity: 1;"></line><line transform="translate(670,0)" x2="0" y2="5" style="fill: none; stroke: #888; stroke-width: 1; opacity: 1;"></line><line transform="translate(690,0)" x2="0" y2="5" style="fill: none; stroke: #888; stroke-width: 1; opacity: 1;"></line><line transform="translate(710,0)" x2="0" y2="5" style="fill: none; stroke: #888; stroke-width: 1; opacity: 1;"></line><line transform="translate(730,0)" x2="0" y2="5" style="fill: none; stroke: #888; stroke-width: 1; opacity: 1;"></line><line transform="translate(750,0)" x2="0" y2="5" style="fill: none; stroke: #888; stroke-width: 1; opacity: 1;"></line><line transform="translate(770,0)" x2="0" y2="5" style="fill: none; stroke: #888; stroke-width: 1; opacity: 1;"></line><line transform="translate(790,0)" x2="0" y2="5" style="fill: none; stroke: #888; stroke-width: 1; opacity: 1;"></line><line transform="translate(810,0)" x2="0" y2="5" style="fill: none; stroke: #888; stroke-width: 1; opacity: 1;"></line><line transform="translate(830,0)" x2="0" y2="5" style="fill: none; stroke: #888; stroke-width: 1; opacity: 1;"></line><line transform="translate(850,0)" x2="0" y2="5" style="fill: none; stroke: #888; stroke-width: 1; opacity: 1;"></line><line transform="translate(870,0)" x2="0" y2="5" style="fill: none; stroke: #888; stroke-width: 1; opacity: 1;"></line><line transform="translate(890,0)" x2="0" y2="5" style="fill: none; stroke: #888; stroke-width: 1; opacity: 1;"></line><line transform="translate(910,0)" x2="0" y2="5" style="fill: none; stroke: #888; stroke-width: 1; opacity: 1;"></line><line transform="translate(930,0)" x2="0" y2="5" style="fill: none; stroke: #888; stroke-width: 1; opacity: 1;"></line><line transform="translate(950,0)" x2="0" y2="5" style="fill: none; stroke: #888; stroke-width: 1; opacity: 1;"></line><line transform="translate(970,0)" x2="0" y2="5" style="fill: none; stroke: #888; stroke-width: 1; opacity: 1;"></line><line transform="translate(990,0)" x2="0" y2="5" style="fill: none; stroke: #888; stroke-width: 1; opacity: 1;"></line><line transform="translate(1010,0)" x2="0" y2="5" style="fill: none; stroke: #888; stroke-width: 1; opacity: 1;"></line><line transform="translate(1030,0)" x2="0" y2="5" style="fill: none; stroke: #888; stroke-width: 1; opacity: 1;"></line><line transform="translate(1050,0)" x2="0" y2="5" style="fill: none; stroke: #888; stroke-width: 1; opacity: 1;"></line><line transform="translate(1070,0)" x2="0" y2="5" style="fill: none; stroke: #888; stroke-width: 1; opacity: 1;"></line><line transform="translate(1090,0)" x2="0" y2="5" style="fill: none; stroke: #888; stroke-width: 1; opacity: 1;"></line><line transform="translate(1110,0)" x2="0" y2="5" style="fill: none; stroke: #888; stroke-width: 1; opacity: 1;"></line><line transform="translate(1130,0)" x2="0" y2="5" style="fill: none; stroke: #888; stroke-width: 1; opacity: 1;"></line><line transform="translate(1150,0)" x2="0" y2="5" style="fill: none; stroke: #888; stroke-width: 1; opacity: 1;"></line><line transform="translate(1170,0)" x2="0" y2="5" style="fill: none; stroke: #888; stroke-width: 1; opacity: 1;"></line><line transform="translate(1190,0)" x2="0" y2="5" style="fill: none; stroke: #888; stroke-width: 1; opacity: 1;"></line><line transform="translate(1210,0)" x2="0" y2="5" style="fill: none; stroke: #888; stroke-width: 1; opacity: 1;"></line><line transform="translate(1230,0)" x2="0" y2="5" style="fill: none; stroke: #888; stroke-width: 1; opacity: 1;"></line><line transform="translate(1250,0)" x2="0" y2="5" style="fill: none; stroke: #888; stroke-width: 1; opacity: 1;"></line><line transform="translate(1270,0)" x2="0" y2="5" style="fill: none; stroke: #888; stroke-width: 1; opacity: 1;"></line><line transform="translate(1290,0)" x2="0" y2="5" style="fill: none; stroke: #888; stroke-width: 1; opacity: 1;"></line><line transform="translate(1310,0)" x2="0" y2="5" style="fill: none; stroke: #888; stroke-width: 1; opacity: 1;"></line><line transform="translate(1330,0)" x2="0" y2="5" style="fill: none; stroke: #888; stroke-width: 1; opacity: 1;"></line><line transform="translate(1350,0)" x2="0" y2="5" style="fill: none; stroke: #888; stroke-width: 1; opacity: 1;"></line><line transform="translate(1370,0)" x2="0" y2="5" style="fill: none; stroke: #888; stroke-width: 1; opacity: 1;"></line><line transform="translate(1390,0)" x2="0" y2="5" style="fill: none; stroke: #888; stroke-width: 1; opacity: 1;"></line><line transform="translate(1410,0)" x2="0" y2="5" style="fill: none; stroke: #888; stroke-width: 1; opacity: 1;"></line><line transform="translate(1430,0)" x2="0" y2="5" style="fill: none; stroke: #888; stroke-width: 1; opacity: 1;"></line><line transform="translate(1450,0)" x2="0" y2="5" style="fill: none; stroke: #888; stroke-width: 1; opacity: 1;"></line><line transform="translate(1470,0)" x2="0" y2="5" style="fill: none; stroke: #888; stroke-width: 1; opacity: 1;"></line><line transform="translate(1490,0)" x2="0" y2="5" style="fill: none; stroke: #888; stroke-width: 1; opacity: 1;"></line><line transform="translate(1510,0)" x2="0" y2="5" style="fill: none; stroke: #888; stroke-width: 1; opacity: 1;"></line><line transform="translate(1530,0)" x2="0" y2="5" style="fill: none; stroke: #888; stroke-width: 1; opacity: 1;"></line><line transform="translate(1550,0)" x2="0" y2="5" style="fill: none; stroke: #888; stroke-width: 1; opacity: 1;"></line><line transform="translate(1570,0)" x2="0" y2="5" style="fill: none; stroke: #888; stroke-width: 1; opacity: 1;"></line><line transform="translate(1590,0)" x2="0" y2="5" style="fill: none; stroke: #888; stroke-width: 1; opacity: 1;"></line><line transform="translate(1610,0)" x2="0" y2="5" style="fill: none; stroke: #888; stroke-width: 1; opacity: 1;"></line><line transform="translate(1630,0)" x2="0" y2="5" style="fill: none; stroke: #888; stroke-width: 1; opacity: 1;"></line><line transform="translate(1650,0)" x2="0" y2="5" style="fill: none; stroke: #888; stroke-width: 1; opacity: 1;"></line><line transform="translate(1670,0)" x2="0" y2="5" style="fill: none; stroke: #888; stroke-width: 1; opacity: 1;"></line><line transform="translate(1690,0)" x2="0" y2="5" style="fill: none; stroke: #888; stroke-width: 1; opacity: 1;"></line><line transform="translate(1710,0)" x2="0" y2="5" style="fill: none; stroke: #888; stroke-width: 1; opacity: 1;"></line><line transform="translate(1730,0)" x2="0" y2="5" style="fill: none; stroke: #888; stroke-width: 1; opacity: 1;"></line><line transform="translate(1750,0)" x2="0" y2="5" style="fill: none; stroke: #888; stroke-width: 1; opacity: 1;"></line></g><g class="mark-text role-axis-label" style="pointer-events: none;"><text text-anchor="end" transform="translate(9.5,7) rotate(270) translate(0,3)" style="font-family: sans-serif; font-size: 10px; fill: #000; opacity: 1;">Russian Fed.</text><text text-anchor="end" transform="translate(29.5,7) rotate(270) translate(0,3)" style="font-family: sans-serif; font-size: 10px; fill: #000; opacity: 1;">United States</text><text text-anchor="end" transform="translate(49.5,7) rotate(270) translate(0,3)" style="font-family: sans-serif; font-size: 10px; fill: #000; opacity: 1;">Canada</text><text text-anchor="end" transform="translate(69.5,7) rotate(270) translate(0,3)" style="font-family: sans-serif; font-size: 10px; fill: #000; opacity: 1;">Germany</text><text text-anchor="end" transform="translate(89.5,7) rotate(270) translate(0,3)" style="font-family: sans-serif; font-size: 10px; fill: #000; opacity: 1;">Netherlands</text><text text-anchor="end" transform="translate(109.5,7) rotate(270) translate(0,3)" style="font-family: sans-serif; font-size: 10px; fill: #000; opacity: 1;">Norway</text><text text-anchor="end" transform="translate(129.5,7) rotate(270) translate(0,3)" style="font-family: sans-serif; font-size: 10px; fill: #000; opacity: 1;">Sweden</text><text text-anchor="end" transform="translate(149.5,7) rotate(270) translate(0,3)" style="font-family: sans-serif; font-size: 10px; fill: #000; opacity: 1;">Austria</text><text text-anchor="end" transform="translate(169.5,7) rotate(270) translate(0,3)" style="font-family: sans-serif; font-size: 10px; fill: #000; opacity: 1;">France</text><text text-anchor="end" transform="translate(189.5,7) rotate(270) translate(0,3)" style="font-family: sans-serif; font-size: 10px; fill: #000; opacity: 1;">Italy</text><text text-anchor="end" transform="translate(209.5,7) rotate(270) translate(0,3)" style="font-family: sans-serif; font-size: 10px; fill: #000; opacity: 1;">Japan</text><text text-anchor="end" transform="translate(229.5,7) rotate(270) translate(0,3)" style="font-family: sans-serif; font-size: 10px; fill: #000; opacity: 1;">Switzerland</text><text text-anchor="end" transform="translate(249.5,7) rotate(270) translate(0,3)" style="font-family: sans-serif; font-size: 10px; fill: #000; opacity: 1;">Korea</text><text text-anchor="end" transform="translate(269.5,7) rotate(270) translate(0,3)" style="font-family: sans-serif; font-size: 10px; fill: #000; opacity: 1;">Latvia</text><text text-anchor="end" transform="translate(289.5,7) rotate(270) translate(0,3)" style="font-family: sans-serif; font-size: 10px; fill: #000; opacity: 1;">Belarus</text><text text-anchor="end" transform="translate(309.5,7) rotate(270) translate(0,3)" style="font-family: sans-serif; font-size: 10px; fill: #000; opacity: 1;">Slovenia</text><text text-anchor="end" transform="translate(329.5,7) rotate(270) translate(0,3)" style="font-family: sans-serif; font-size: 10px; fill: #000; opacity: 1;">Czech Republic</text><text text-anchor="end" transform="translate(349.5,7) rotate(270) translate(0,3)" style="font-family: sans-serif; font-size: 10px; fill: #000; opacity: 1;">China</text><text text-anchor="end" transform="translate(369.5,7) rotate(270) translate(0,3)" style="font-family: sans-serif; font-size: 10px; fill: #000; opacity: 1;">Finland</text><text text-anchor="end" transform="translate(389.5,7) rotate(270) translate(0,3)" style="font-family: sans-serif; font-size: 10px; fill: #000; opacity: 1;">Poland</text><text text-anchor="end" transform="translate(409.5,7) rotate(270) translate(0,3)" style="font-family: sans-serif; font-size: 10px; fill: #000; opacity: 1;">Australia</text><text text-anchor="end" transform="translate(429.5,7) rotate(270) translate(0,3)" style="font-family: sans-serif; font-size: 10px; fill: #000; opacity: 1;">Great Britain</text><text text-anchor="end" transform="translate(449.5,7) rotate(270) translate(0,3)" style="font-family: sans-serif; font-size: 10px; fill: #000; opacity: 1;">Kazakhstan</text><text text-anchor="end" transform="translate(469.5,7) rotate(270) translate(0,3)" style="font-family: sans-serif; font-size: 10px; fill: #000; opacity: 1;">Slovakia</text><text text-anchor="end" transform="translate(489.5,7) rotate(270) translate(0,3)" style="font-family: sans-serif; font-size: 10px; fill: #000; opacity: 1;">Ukraine</text><text text-anchor="end" transform="translate(509.5,7) rotate(270) translate(0,3)" style="font-family: sans-serif; font-size: 10px; fill: #000; opacity: 1;">Croatia</text><text text-anchor="end" transform="translate(529.5,7) rotate(270) translate(0,3)" style="font-family: sans-serif; font-size: 10px; fill: #000; opacity: 1;">New Zealand</text><text text-anchor="end" transform="translate(549.5,7) rotate(270) translate(0,3)" style="font-family: sans-serif; font-size: 10px; fill: #000; opacity: 1;">Morocco</text><text text-anchor="end" transform="translate(569.5,7) rotate(270) translate(0,3)" style="font-family: sans-serif; font-size: 10px; fill: #000; opacity: 1;">Spain</text><text text-anchor="end" transform="translate(589.5,7) rotate(270) translate(0,3)" style="font-family: sans-serif; font-size: 10px; fill: #000; opacity: 1;">Lithuania</text><text text-anchor="end" transform="translate(609.5,7) rotate(270) translate(0,3)" style="font-family: sans-serif; font-size: 10px; fill: #000; opacity: 1;">Hungary</text><text text-anchor="end" transform="translate(629.5,7) rotate(270) translate(0,3)" style="font-family: sans-serif; font-size: 10px; fill: #000; opacity: 1;">Estonia</text><text text-anchor="end" transform="translate(649.5,7) rotate(270) translate(0,3)" style="font-family: sans-serif; font-size: 10px; fill: #000; opacity: 1;">Serbia</text><text text-anchor="end" transform="translate(669.5,7) rotate(270) translate(0,3)" style="font-family: sans-serif; font-size: 10px; fill: #000; opacity: 1;">Togo</text><text text-anchor="end" transform="translate(689.5,7) rotate(270) translate(0,3)" style="font-family: sans-serif; font-size: 10px; fill: #000; opacity: 1;">Georgia</text><text text-anchor="end" transform="translate(709.5,7) rotate(270) translate(0,3)" style="font-family: sans-serif; font-size: 10px; fill: #000; opacity: 1;">Rep. of Moldova</text><text text-anchor="end" transform="translate(729.5,7) rotate(270) translate(0,3)" style="font-family: sans-serif; font-size: 10px; fill: #000; opacity: 1;">Monaco</text><text text-anchor="end" transform="translate(749.5,7) rotate(270) translate(0,3)" style="font-family: sans-serif; font-size: 10px; fill: #000; opacity: 1;">Bulgaria</text><text text-anchor="end" transform="translate(769.5,7) rotate(270) translate(0,3)" style="font-family: sans-serif; font-size: 10px; fill: #000; opacity: 1;">Cyprus</text><text text-anchor="end" transform="translate(789.5,7) rotate(270) translate(0,3)" style="font-family: sans-serif; font-size: 10px; fill: #000; opacity: 1;">Lebanon</text><text text-anchor="end" transform="translate(809.5,7) rotate(270) translate(0,3)" style="font-family: sans-serif; font-size: 10px; fill: #000; opacity: 1;">Greece</text><text text-anchor="end" transform="translate(829.5,7) rotate(270) translate(0,3)" style="font-family: sans-serif; font-size: 10px; fill: #000; opacity: 1;">Romania</text><text text-anchor="end" transform="translate(849.5,7) rotate(270) translate(0,3)" style="font-family: sans-serif; font-size: 10px; fill: #000; opacity: 1;">Israel</text><text text-anchor="end" transform="translate(869.5,7) rotate(270) translate(0,3)" style="font-family: sans-serif; font-size: 10px; fill: #000; opacity: 1;">Azerbaijan</text><text text-anchor="end" transform="translate(889.5,7) rotate(270) translate(0,3)" style="font-family: sans-serif; font-size: 10px; fill: #000; opacity: 1;">Turkey</text><text text-anchor="end" transform="translate(909.5,7) rotate(270) translate(0,3)" style="font-family: sans-serif; font-size: 10px; fill: #000; opacity: 1;">Tajikistan</text><text text-anchor="end" transform="translate(929.5,7) rotate(270) translate(0,3)" style="font-family: sans-serif; font-size: 10px; fill: #000; opacity: 1;">Dominica</text><text text-anchor="end" transform="translate(949.5,7) rotate(270) translate(0,3)" style="font-family: sans-serif; font-size: 10px; fill: #000; opacity: 1;">Venezuela</text><text text-anchor="end" transform="translate(969.5,7) rotate(270) translate(0,3)" style="font-family: sans-serif; font-size: 10px; fill: #000; opacity: 1;">The Former Yugoslav Republic of Ma…</text><text text-anchor="end" transform="translate(989.5,7) rotate(270) translate(0,3)" style="font-family: sans-serif; font-size: 10px; fill: #000; opacity: 1;">Armenia</text><text text-anchor="end" transform="translate(1009.5,7) rotate(270) translate(0,3)" style="font-family: sans-serif; font-size: 10px; fill: #000; opacity: 1;">Uzbekistan</text><text text-anchor="end" transform="translate(1029.5,7) rotate(270) translate(0,3)" style="font-family: sans-serif; font-size: 10px; fill: #000; opacity: 1;">Portugal</text><text text-anchor="end" transform="translate(1049.5,7) rotate(270) translate(0,3)" style="font-family: sans-serif; font-size: 10px; fill: #000; opacity: 1;">Belgium</text><text text-anchor="end" transform="translate(1069.5,7) rotate(270) translate(0,3)" style="font-family: sans-serif; font-size: 10px; fill: #000; opacity: 1;">Tonga</text><text text-anchor="end" transform="translate(1089.5,7) rotate(270) translate(0,3)" style="font-family: sans-serif; font-size: 10px; fill: #000; opacity: 1;">Iceland</text><text text-anchor="end" transform="translate(1109.5,7) rotate(270) translate(0,3)" style="font-family: sans-serif; font-size: 10px; fill: #000; opacity: 1;">Mongolia</text><text text-anchor="end" transform="translate(1129.5,7) rotate(270) translate(0,3)" style="font-family: sans-serif; font-size: 10px; fill: #000; opacity: 1;">Chinese Taipei</text><text text-anchor="end" transform="translate(1149.5,7) rotate(270) translate(0,3)" style="font-family: sans-serif; font-size: 10px; fill: #000; opacity: 1;">Denmark</text><text text-anchor="end" transform="translate(1169.5,7) rotate(270) translate(0,3)" style="font-family: sans-serif; font-size: 10px; fill: #000; opacity: 1;">Ireland</text><text text-anchor="end" transform="translate(1189.5,7) rotate(270) translate(0,3)" style="font-family: sans-serif; font-size: 10px; fill: #000; opacity: 1;">Argentina</text><text text-anchor="end" transform="translate(1209.5,7) rotate(270) translate(0,3)" style="font-family: sans-serif; font-size: 10px; fill: #000; opacity: 1;">Nepal</text><text text-anchor="end" transform="translate(1229.5,7) rotate(270) translate(0,3)" style="font-family: sans-serif; font-size: 10px; fill: #000; opacity: 1;">Chile</text><text text-anchor="end" transform="translate(1249.5,7) rotate(270) translate(0,3)" style="font-family: sans-serif; font-size: 10px; fill: #000; opacity: 1;">Cayman Islands</text><text text-anchor="end" transform="translate(1269.5,7) rotate(270) translate(0,3)" style="font-family: sans-serif; font-size: 10px; fill: #000; opacity: 1;">Brazil</text><text text-anchor="end" transform="translate(1289.5,7) rotate(270) translate(0,3)" style="font-family: sans-serif; font-size: 10px; fill: #000; opacity: 1;">Malta</text><text text-anchor="end" transform="translate(1309.5,7) rotate(270) translate(0,3)" style="font-family: sans-serif; font-size: 10px; fill: #000; opacity: 1;">Albania</text><text text-anchor="end" transform="translate(1329.5,7) rotate(270) translate(0,3)" style="font-family: sans-serif; font-size: 10px; fill: #000; opacity: 1;">Kyrgyzstan</text><text text-anchor="end" transform="translate(1349.5,7) rotate(270) translate(0,3)" style="font-family: sans-serif; font-size: 10px; fill: #000; opacity: 1;">IR Iran</text><text text-anchor="end" transform="translate(1369.5,7) rotate(270) translate(0,3)" style="font-family: sans-serif; font-size: 10px; fill: #000; opacity: 1;">San Marino</text><text text-anchor="end" transform="translate(1389.5,7) rotate(270) translate(0,3)" style="font-family: sans-serif; font-size: 10px; fill: #000; opacity: 1;">Independent Olymp. participant</text><text text-anchor="end" transform="translate(1409.5,7) rotate(270) translate(0,3)" style="font-family: sans-serif; font-size: 10px; fill: #000; opacity: 1;">Mexico</text><text text-anchor="end" transform="translate(1429.5,7) rotate(270) translate(0,3)" style="font-family: sans-serif; font-size: 10px; fill: #000; opacity: 1;">Bosnia and Herzegovina</text><text text-anchor="end" transform="translate(1449.5,7) rotate(270) translate(0,3)" style="font-family: sans-serif; font-size: 10px; fill: #000; opacity: 1;">Montenegro</text><text text-anchor="end" transform="translate(1469.5,7) rotate(270) translate(0,3)" style="font-family: sans-serif; font-size: 10px; fill: #000; opacity: 1;">Virgin Isl, US</text><text text-anchor="end" transform="translate(1489.5,7) rotate(270) translate(0,3)" style="font-family: sans-serif; font-size: 10px; fill: #000; opacity: 1;">Andorra</text><text text-anchor="end" transform="translate(1509.5,7) rotate(270) translate(0,3)" style="font-family: sans-serif; font-size: 10px; fill: #000; opacity: 1;">Paraguay</text><text text-anchor="end" transform="translate(1529.5,7) rotate(270) translate(0,3)" style="font-family: sans-serif; font-size: 10px; fill: #000; opacity: 1;">Thailand</text><text text-anchor="end" transform="translate(1549.5,7) rotate(270) translate(0,3)" style="font-family: sans-serif; font-size: 10px; fill: #000; opacity: 1;">Luxembourg</text><text text-anchor="end" transform="translate(1569.5,7) rotate(270) translate(0,3)" style="font-family: sans-serif; font-size: 10px; fill: #000; opacity: 1;">Zimbabwe</text><text text-anchor="end" transform="translate(1589.5,7) rotate(270) translate(0,3)" style="font-family: sans-serif; font-size: 10px; fill: #000; opacity: 1;">Peru</text><text text-anchor="end" transform="translate(1609.5,7) rotate(270) translate(0,3)" style="font-family: sans-serif; font-size: 10px; fill: #000; opacity: 1;">Liechtenstein</text><text text-anchor="end" transform="translate(1629.5,7) rotate(270) translate(0,3)" style="font-family: sans-serif; font-size: 10px; fill: #000; opacity: 1;">Jamaica</text><text text-anchor="end" transform="translate(1649.5,7) rotate(270) translate(0,3)" style="font-family: sans-serif; font-size: 10px; fill: #000; opacity: 1;">Philippines</text><text text-anchor="end" transform="translate(1669.5,7) rotate(270) translate(0,3)" style="font-family: sans-serif; font-size: 10px; fill: #000; opacity: 1;">Pakistan</text><text text-anchor="end" transform="translate(1689.5,7) rotate(270) translate(0,3)" style="font-family: sans-serif; font-size: 10px; fill: #000; opacity: 1;">Hong Kong, CHN</text><text text-anchor="end" transform="translate(1709.5,7) rotate(270) translate(0,3)" style="font-family: sans-serif; font-size: 10px; fill: #000; opacity: 1;">Virgin Isl, B</text><text text-anchor="end" transform="translate(1729.5,7) rotate(270) translate(0,3)" style="font-family: sans-serif; font-size: 10px; fill: #000; opacity: 1;">Bermuda</text><text text-anchor="end" transform="translate(1749.5,7) rotate(270) translate(0,3)" style="font-family: sans-serif; font-size: 10px; fill: #000; opacity: 1;">Timor-Leste</text></g><g class="mark-rule role-axis-domain" style="pointer-events: none;"><line transform="translate(0,0)" x2="1760" y2="0" style="fill: none; stroke: #888; stroke-width: 1; opacity: 1;"></line></g><g class="mark-text role-axis-title" style="pointer-events: none;"><text text-anchor="middle" transform="translate(880,195.078125)" style="font-family: sans-serif; font-size: 11px; font-weight: bold; fill: #000; opacity: 1;">country</text></g></g><path class="foreground" d="" style="pointer-events: none; display: none; fill: none;"></path></g></g><g class="mark-group role-axis"><g transform="translate(0.5,0.5)"><path class="background" d="M0,0h0v0h0Z" style="pointer-events: none; fill: none;"></path><g><g class="mark-rule role-axis-tick" style="pointer-events: none;"><line transform="translate(0,200)" x2="-5" y2="0" style="fill: none; stroke: #888; stroke-width: 1; opacity: 1;"></line><line transform="translate(0,150)" x2="-5" y2="0" style="fill: none; stroke: #888; stroke-width: 1; opacity: 1;"></line><line transform="translate(0,100)" x2="-5" y2="0" style="fill: none; stroke: #888; stroke-width: 1; opacity: 1;"></line><line transform="translate(0,50)" x2="-5" y2="0" style="fill: none; stroke: #888; stroke-width: 1; opacity: 1;"></line><line transform="translate(0,0)" x2="-5" y2="0" style="fill: none; stroke: #888; stroke-width: 1; opacity: 1;"></line></g><g class="mark-text role-axis-label" style="pointer-events: none;"><text text-anchor="end" transform="translate(-7,203)" style="font-family: sans-serif; font-size: 10px; fill: #000; opacity: 1;">0</text><text text-anchor="end" transform="translate(-7,153)" style="font-family: sans-serif; font-size: 10px; fill: #000; opacity: 1;">10</text><text text-anchor="end" transform="translate(-7,103)" style="font-family: sans-serif; font-size: 10px; fill: #000; opacity: 1;">20</text><text text-anchor="end" transform="translate(-7,53)" style="font-family: sans-serif; font-size: 10px; fill: #000; opacity: 1;">30</text><text text-anchor="end" transform="translate(-7,3)" style="font-family: sans-serif; font-size: 10px; fill: #000; opacity: 1;">40</text></g><g class="mark-rule role-axis-domain" style="pointer-events: none;"><line transform="translate(0,200)" x2="0" y2="-200" style="fill: none; stroke: #888; stroke-width: 1; opacity: 1;"></line></g><g class="mark-text role-axis-title" style="pointer-events: none;"><text text-anchor="middle" transform="translate(-22.123046875,100) rotate(-90) translate(0,-2)" style="font-family: sans-serif; font-size: 11px; font-weight: bold; fill: #000; opacity: 1;">Medals</text></g></g><path class="foreground" d="" style="pointer-events: none; display: none; fill: none;"></path></g></g><g class="mark-rect role-mark marks"><path d="M21,125h18v75h-18Z" style="fill: blue;"></path><path d="M181,185h18v15h-18Z" style="fill: blue;"></path><path d="M441,195h18v5h-18Z" style="fill: blue;"></path><path d="M521,200h18v0h-18Z" style="fill: blue;"></path><path d="M381,185h18v15h-18Z" style="fill: blue;"></path><path d="M541,200h18v0h-18Z" style="fill: blue;"></path><path d="M461,200h18v0h-18Z" style="fill: blue;"></path><path d="M1,10.000000000000009h18v64.99999999999999h-18Z" style="fill: red;"></path><path d="M161,145h18v10h-18Z" style="fill: red;"></path><path d="M561,200h18v0h-18Z" style="fill: blue;"></path><path d="M141,160h18v40h-18Z" style="fill: blue;"></path><path d="M161,155h18v45h-18Z" style="fill: blue;"></path><path d="M581,200h18v0h-18Z" style="fill: red;"></path><path d="M121,125h18v30h-18Z" style="fill: red;"></path><path d="M601,200h18v0h-18Z" style="fill: red;"></path><path d="M261,165h18v5h-18Z" style="fill: red;"></path><path d="M381,180h18v5h-18Z" style="fill: red;"></path><path d="M361,200h18v0h-18Z" style="fill: blue;"></path><path d="M201,155h18v0h-18Z" style="fill: red;"></path><path d="M421,190h18v10h-18Z" style="fill: red;"></path><path d="M401,185h18v10h-18Z" style="fill: red;"></path><path d="M361,175h18v25h-18Z" style="fill: red;"></path><path d="M221,155h18v15h-18Z" style="fill: red;"></path><path d="M621,200h18v0h-18Z" style="fill: blue;"></path><path d="M21,60.00000000000001h18v65h-18Z" style="fill: red;"></path><path d="M201,155h18v45h-18Z" style="fill: blue;"></path><path d="M101,145h18v55h-18Z" style="fill: blue;"></path><path d="M241,160h18v40h-18Z" style="fill: red;"></path><path d="M1,75h18v125h-18Z" style="fill: blue;"></path><path d="M641,200h18v0h-18Z" style="fill: blue;"></path><path d="M461,195h18v5h-18Z" style="fill: red;"></path><path d="M281,170h18v25h-18Z" style="fill: red;"></path><path d="M301,170h18v20h-18Z" style="fill: red;"></path><path d="M321,185h18v15h-18Z" style="fill: blue;"></path><path d="M301,190h18v10h-18Z" style="fill: blue;"></path><path d="M661,200h18v0h-18Z" style="fill: red;"></path><path d="M221,170h18v30h-18Z" style="fill: blue;"></path><path d="M41,130h18v70h-18Z" style="fill: blue;"></path><path d="M681,200h18v0h-18Z" style="fill: blue;"></path><path d="M41,60.00000000000001h18v70h-18Z" style="fill: red;"></path><path d="M401,195h18v5h-18Z" style="fill: blue;"></path><path d="M61,130h18v70h-18Z" style="fill: blue;"></path><path d="M121,155h18v45h-18Z" style="fill: blue;"></path><path d="M281,195h18v5h-18Z" style="fill: blue;"></path><path d="M701,200h18v0h-18Z" style="fill: red;"></path><path d="M721,200h18v0h-18Z" style="fill: red;"></path><path d="M741,200h18v0h-18Z" style="fill: red;"></path><path d="M761,200h18v0h-18Z" style="fill: red;"></path><path d="M781,200h18v0h-18Z" style="fill: blue;"></path><path d="M801,200h18v0h-18Z" style="fill: blue;"></path><path d="M821,200h18v0h-18Z" style="fill: blue;"></path><path d="M841,200h18v0h-18Z" style="fill: blue;"></path><path d="M861,200h18v0h-18Z" style="fill: blue;"></path><path d="M181,155h18v30h-18Z" style="fill: red;"></path><path d="M441,195h18v0h-18Z" style="fill: red;"></path><path d="M61,70h18v60h-18Z" style="fill: red;"></path><path d="M881,200h18v0h-18Z" style="fill: red;"></path><path d="M901,200h18v0h-18Z" style="fill: blue;"></path><path d="M881,200h18v0h-18Z" style="fill: blue;"></path><path d="M481,195h18v5h-18Z" style="fill: red;"></path><path d="M841,200h18v0h-18Z" style="fill: red;"></path><path d="M501,195h18v0h-18Z" style="fill: red;"></path><path d="M141,135h18v25h-18Z" style="fill: red;"></path><path d="M321,170h18v15h-18Z" style="fill: red;"></path><path d="M821,200h18v0h-18Z" style="fill: red;"></path><path d="M261,170h18v30h-18Z" style="fill: blue;"></path><path d="M421,200h18v0h-18Z" style="fill: blue;"></path><path d="M741,200h18v0h-18Z" style="fill: blue;"></path><path d="M481,200h18v0h-18Z" style="fill: blue;"></path><path d="M921,200h18v0h-18Z" style="fill: red;"></path><path d="M101,110.00000000000001h18v34.999999999999986h-18Z" style="fill: red;"></path><path d="M521,200h18v0h-18Z" style="fill: red;"></path><path d="M81,100h18v35h-18Z" style="fill: red;"></path><path d="M941,200h18v0h-18Z" style="fill: blue;"></path><path d="M961,200h18v0h-18Z" style="fill: blue;"></path><path d="M981,200h18v0h-18Z" style="fill: blue;"></path><path d="M721,200h18v0h-18Z" style="fill: blue;"></path><path d="M81,135h18v65h-18Z" style="fill: blue;"></path><path d="M1001,200h18v0h-18Z" style="fill: blue;"></path><path d="M1021,200h18v0h-18Z" style="fill: blue;"></path><path d="M1041,200h18v0h-18Z" style="fill: blue;"></path><path d="M341,170h18v20h-18Z" style="fill: red;"></path><path d="M601,200h18v0h-18Z" style="fill: blue;"></path><path d="M701,200h18v0h-18Z" style="fill: blue;"></path><path d="M241,200h18v0h-18Z" style="fill: blue;"></path><path d="M1061,200h18v0h-18Z" style="fill: blue;"></path><path d="M1081,200h18v0h-18Z" style="fill: blue;"></path><path d="M1101,200h18v0h-18Z" style="fill: blue;"></path><path d="M1021,200h18v0h-18Z" style="fill: red;"></path><path d="M561,200h18v0h-18Z" style="fill: red;"></path><path d="M341,190h18v10h-18Z" style="fill: blue;"></path><path d="M1121,200h18v0h-18Z" style="fill: blue;"></path><path d="M1141,200h18v0h-18Z" style="fill: blue;"></path><path d="M1161,200h18v0h-18Z" style="fill: blue;"></path><path d="M761,200h18v0h-18Z" style="fill: blue;"></path><path d="M1181,200h18v0h-18Z" style="fill: blue;"></path><path d="M1201,200h18v0h-18Z" style="fill: blue;"></path><path d="M501,195h18v5h-18Z" style="fill: blue;"></path><path d="M621,200h18v0h-18Z" style="fill: red;"></path><path d="M581,200h18v0h-18Z" style="fill: blue;"></path><path d="M1221,200h18v0h-18Z" style="fill: red;"></path><path d="M1241,200h18v0h-18Z" style="fill: blue;"></path><path d="M1261,200h18v0h-18Z" style="fill: blue;"></path><path d="M681,200h18v0h-18Z" style="fill: red;"></path><path d="M1041,200h18v0h-18Z" style="fill: red;"></path><path d="M1281,200h18v0h-18Z" style="fill: red;"></path><path d="M1301,200h18v0h-18Z" style="fill: blue;"></path><path d="M1081,200h18v0h-18Z" style="fill: red;"></path><path d="M1221,200h18v0h-18Z" style="fill: blue;"></path><path d="M1321,200h18v0h-18Z" style="fill: blue;"></path><path d="M1261,200h18v0h-18Z" style="fill: red;"></path><path d="M1341,200h18v0h-18Z" style="fill: red;"></path><path d="M1361,200h18v0h-18Z" style="fill: red;"></path><path d="M1161,200h18v0h-18Z" style="fill: red;"></path><path d="M861,200h18v0h-18Z" style="fill: red;"></path><path d="M921,200h18v0h-18Z" style="fill: blue;"></path><path d="M1141,200h18v0h-18Z" style="fill: red;"></path><path d="M1381,200h18v0h-18Z" style="fill: blue;"></path><path d="M1341,200h18v0h-18Z" style="fill: blue;"></path><path d="M1401,200h18v0h-18Z" style="fill: blue;"></path><path d="M1421,200h18v0h-18Z" style="fill: blue;"></path><path d="M1441,200h18v0h-18Z" style="fill: red;"></path><path d="M641,200h18v0h-18Z" style="fill: red;"></path><path d="M781,200h18v0h-18Z" style="fill: red;"></path><path d="M1461,200h18v0h-18Z" style="fill: red;"></path><path d="M1481,200h18v0h-18Z" style="fill: blue;"></path><path d="M1501,200h18v0h-18Z" style="fill: red;"></path><path d="M1181,200h18v0h-18Z" style="fill: red;"></path><path d="M1521,200h18v0h-18Z" style="fill: blue;"></path><path d="M1541,200h18v0h-18Z" style="fill: blue;"></path><path d="M981,200h18v0h-18Z" style="fill: red;"></path><path d="M541,200h18v0h-18Z" style="fill: red;"></path><path d="M1001,200h18v0h-18Z" style="fill: red;"></path><path d="M1481,200h18v0h-18Z" style="fill: red;"></path><path d="M1561,200h18v0h-18Z" style="fill: blue;"></path><path d="M1581,200h18v0h-18Z" style="fill: blue;"></path><path d="M1601,200h18v0h-18Z" style="fill: blue;"></path><path d="M961,200h18v0h-18Z" style="fill: red;"></path><path d="M1601,200h18v0h-18Z" style="fill: red;"></path><path d="M1621,200h18v0h-18Z" style="fill: blue;"></path><path d="M1641,200h18v0h-18Z" style="fill: blue;"></path><path d="M1661,200h18v0h-18Z" style="fill: blue;"></path><path d="M1581,200h18v0h-18Z" style="fill: red;"></path><path d="M1101,200h18v0h-18Z" style="fill: red;"></path><path d="M1681,200h18v0h-18Z" style="fill: blue;"></path><path d="M801,200h18v0h-18Z" style="fill: red;"></path><path d="M1701,200h18v0h-18Z" style="fill: blue;"></path><path d="M1301,200h18v0h-18Z" style="fill: red;"></path><path d="M1421,200h18v0h-18Z" style="fill: red;"></path><path d="M1441,200h18v0h-18Z" style="fill: blue;"></path><path d="M1721,200h18v0h-18Z" style="fill: blue;"></path><path d="M1521,200h18v0h-18Z" style="fill: red;"></path><path d="M1361,200h18v0h-18Z" style="fill: blue;"></path><path d="M1741,200h18v0h-18Z" style="fill: blue;"></path></g><g class="mark-group role-legend"><g transform="translate(1778,0)"><path class="background" d="M0,0h50v40h-50Z" style="pointer-events: none; fill: none;"></path><g><g class="mark-group role-legend-entry"><g transform="translate(0,16)"><path class="background" d="M0,0h0v0h0Z" style="pointer-events: none; fill: none;"></path><g><g class="mark-group role-scope"><g transform="translate(0,0)"><path class="background" d="M0,0h49.3447265625v11h-49.3447265625Z" style="pointer-events: none; fill: none; opacity: 1;"></path><g><g class="mark-symbol role-legend-symbol" style="pointer-events: none;"><path transform="translate(6,6)" d="M-5,-5h10v10h-10Z" style="fill: blue; stroke-width: 1.5; opacity: 1;"></path></g><g class="mark-text role-legend-label" style="pointer-events: none;"><text text-anchor="start" transform="translate(16,9)" style="font-family: sans-serif; font-size: 10px; fill: #000; opacity: 1;">Male</text></g></g><path class="foreground" d="" style="pointer-events: none; display: none; fill: none;"></path></g><g transform="translate(0,13)"><path class="background" d="M0,0h49.3447265625v11h-49.3447265625Z" style="pointer-events: none; fill: none; opacity: 1;"></path><g><g class="mark-symbol role-legend-symbol" style="pointer-events: none;"><path transform="translate(6,6)" d="M-5,-5h10v10h-10Z" style="fill: red; stroke-width: 1.5; opacity: 1;"></path></g><g class="mark-text role-legend-label" style="pointer-events: none;"><text text-anchor="start" transform="translate(16,9)" style="font-family: sans-serif; font-size: 10px; fill: #000; opacity: 1;">Female</text></g></g><path class="foreground" d="" style="pointer-events: none; display: none; fill: none;"></path></g></g></g><path class="foreground" d="" style="pointer-events: none; display: none; fill: none;"></path></g></g><g class="mark-text role-legend-title" style="pointer-events: none;"><text text-anchor="start" transform="translate(0,9)" style="font-family: sans-serif; font-size: 11px; font-weight: bold; fill: #000; opacity: 1;">gender</text></g></g><path class="foreground" d="" style="pointer-events: none; display: none; fill: none;"></path></g></g></g><path class="foreground" d="" style="display: none; fill: none;"></path></g></g></g></svg>